HIERARCHY
ROOT Hips
{
	OFFSET 0.000000 0.000000 0.000000 
	CHANNELS 6 Xposition Yposition Zposition Zrotation Yrotation Xrotation
	JOINT LeftUpLeg
	{
		OFFSET 1.363060 -1.794630 0.839290 
		CHANNELS 3 Zrotation Yrotation Xrotation
		JOINT LeftLeg
		{
			OFFSET 2.448110 -6.726130 0.000000 
			CHANNELS 3 Zrotation Yrotation Xrotation
			JOINT LeftFoot
			{
				OFFSET 2.562200 -7.039590 0.000000 
				CHANNELS 3 Zrotation Yrotation Xrotation
				JOINT LeftToeBase
				{
					OFFSET 0.157640 -0.433110 2.322550 
					CHANNELS 3 Zrotation Yrotation Xrotation
					End Site
					{
						OFFSET 0.000000 0.000000 0.000000 
					}
				}
			}
		}
	}
	JOINT RightUpLeg
	{
		OFFSET -1.305520 -1.794630 0.839290 
		CHANNELS 3 Zrotation Yrotation Xrotation
		JOINT RightLeg
		{
			OFFSET -2.542530 -6.985550 0.000000 
			CHANNELS 3 Zrotation Yrotation Xrotation
			JOINT RightFoot
			{
				OFFSET -2.568260 -7.056230 0.000000 
				CHANNELS 3 Zrotation Yrotation Xrotation
				JOINT RightToeBase
				{
					OFFSET -0.164730 -0.452590 2.363150 
					CHANNELS 3 Zrotation Yrotation Xrotation
					End Site
					{
						OFFSET 0.000000 0.000000 0.000000 
					}
				}
			}
		}
	}
	JOINT Spine
	{
		OFFSET 0.028270 2.035590 -0.193380 
		CHANNELS 3 Zrotation Yrotation Xrotation
		JOINT Spine1
		{
			OFFSET 0.056720 2.048850 -0.042750 
			CHANNELS 3 Zrotation Yrotation Xrotation
			JOINT Neck1
			{
				OFFSET -0.054170 1.746240 0.172020 
				CHANNELS 3 Zrotation Yrotation Xrotation
				JOINT Head
				{
					OFFSET 0.104070 1.761360 -0.123970 
					CHANNELS 3 Zrotation Yrotation Xrotation
					End Site
					{
						OFFSET 0.000000 0.000000 0.000000 
					}
				}
			}
			JOINT LeftArm
			{
				OFFSET 3.362410 1.200890 -0.311210 
				CHANNELS 3 Zrotation Yrotation Xrotation
				JOINT LeftForeArm
				{
					OFFSET 4.983000 -0.000000 -0.000000 
					CHANNELS 3 Zrotation Yrotation Xrotation
					JOINT LeftHand
					{
						OFFSET 3.483560 -0.000000 -0.000000 
						CHANNELS 3 Zrotation Yrotation Xrotation
						JOINT LeftHandIndex1
						{
							OFFSET 0.715260 -0.000000 -0.000000 
							CHANNELS 3 Zrotation Yrotation Xrotation
							End Site
							{
								OFFSET 0.000000 0.000000 0.000000 
							}
						}
					}
				}
			}
			JOINT RightArm
			{
				OFFSET -3.136600 1.374050 -0.404650 
				CHANNELS 3 Zrotation Yrotation Xrotation
				JOINT RightForeArm
				{
					OFFSET -5.241900 -0.000000 -0.000000 
					CHANNELS 3 Zrotation Yrotation Xrotation
					JOINT RightHand
					{
						OFFSET -3.444170 -0.000000 -0.000000 
						CHANNELS 3 Zrotation Yrotation Xrotation
						JOINT RightHandIndex1
						{
							OFFSET -0.622530 -0.000000 -0.000000 
							CHANNELS 3 Zrotation Yrotation Xrotation
							End Site
							{
								OFFSET 0.000000 0.000000 0.000000 
							}
						}
					}
				}
			}
		}
	}
}
MOTION
Frames: 9
Frame Time: 0.041667
33.439059 17.737150 6.788385 -94.971348 -87.479086 102.413140 -17.639514 -4.601721 -3.147984 -0.669445 4.304672 10.748268 0.578376 -0.519128 1.095600 0.018000 -0.865600 -2.379200 16.615394 2.505168 -34.406024 -6.692342 -16.072990 48.629861 3.678019 -19.104893 -5.128649 -0.122200 -2.253400 6.206600 1.000392 -2.487194 -5.295189 5.200475 -1.222931 -2.238400 1.704791 -2.470058 6.490038 0.863200 -1.452400 5.751200 -88.560052 -27.885775 16.304134 48.224011 -56.143563 -22.916975 -2.914810 1.770596 -64.001936 -7.125000 0.000000 0.000000 68.890451 24.126219 35.848053 -68.048677 59.588122 -43.329805 -0.455956 0.015351 -2.688554 7.125000 0.000000 0.000000 
33.313643 17.722903 6.796110 -94.542810 -87.587041 102.125423 -17.850670 -4.482391 -2.868055 -0.663594 4.314966 10.772896 0.617567 -0.741816 0.706640 0.017800 -0.862400 -2.370400 16.531808 2.662258 -34.790402 -6.064483 -15.550108 46.307180 3.798262 -19.587309 -5.051472 -0.095300 -1.991200 5.481400 0.968021 -2.414623 -5.159074 5.160974 -1.197910 -1.802118 1.756575 -2.690059 6.266480 0.818200 -1.534700 5.950900 -88.874357 -29.171747 16.626106 45.594115 -55.013957 -21.039172 -2.839503 1.977945 -61.973457 -7.125000 0.000000 0.000000 69.190582 24.644812 35.680658 -67.134224 59.406303 -42.561464 -0.465328 0.021347 -2.899825 7.125000 0.000000 0.000000 
33.186723 17.708656 6.800425 -93.834770 -87.679064 101.545330 -17.993332 -4.366805 -2.592739 -0.658183 4.315212 10.782855 0.655533 -0.957463 0.353623 0.013300 -0.745500 -2.048900 16.460096 2.903774 -35.047306 -5.420899 -14.964190 43.865255 3.873413 -19.867134 -5.118246 -0.115400 -2.190200 6.031600 1.012102 -2.521242 -5.254182 5.379657 -1.234847 -2.105089 1.814264 -2.696430 5.719699 0.861500 -1.535800 5.651700 -89.001864 -28.856945 16.851247 43.930196 -54.316697 -20.056390 -2.972608 2.098222 -60.149981 -7.125000 0.000000 0.000000 69.528711 24.087405 36.058750 -66.764906 59.336250 -42.246631 -0.477921 0.031159 -2.852479 7.125000 0.000000 0.000000 
33.056090 17.692000 6.805341 -90.354279 -87.781916 98.264994 -18.149311 -4.218787 -2.387096 -0.651598 4.315307 10.806193 0.706139 -1.235084 0.040282 0.011600 -0.696900 -1.915300 16.372980 3.004710 -35.230702 -4.742055 -14.293165 41.160650 3.918492 -20.058607 -4.573488 -0.136200 -2.379000 6.554200 1.017905 -2.557518 -5.265559 5.474292 -1.257412 -2.136409 1.976583 -2.856112 5.300093 0.920400 -1.598500 5.578900 -89.139505 -28.779949 17.393308 43.214929 -54.024812 -19.548948 -2.878363 2.278094 -58.046926 -7.125000 0.000000 0.000000 69.927346 23.784977 35.763975 -66.839745 59.357367 -42.318055 -0.490505 0.027238 -2.538738 7.125000 0.000000 0.000000 
32.925859 17.675947 6.809756 -87.123230 -87.863363 95.216615 -18.283011 -4.095870 -2.150152 -0.645374 4.313339 10.822065 0.753655 -1.492579 -0.293139 0.009800 -0.639400 -1.757000 16.296546 3.172307 -35.409296 -4.105212 -13.598964 38.496754 3.973569 -20.306499 -4.025500 -0.148100 -2.480300 6.835100 1.041377 -2.615027 -5.296041 5.623695 -1.284855 -2.227108 2.102892 -2.962003 4.837381 0.972100 -1.639600 5.448600 -89.347324 -28.677901 17.746893 42.306034 -53.621871 -18.954796 -2.841423 2.418898 -56.237753 -7.125000 0.000000 0.000000 70.268835 23.440385 35.625303 -66.832095 59.360515 -42.316951 -0.501670 0.026085 -2.449655 7.125000 0.000000 0.000000 
32.793621 17.659091 6.813468 -82.671153 -87.926874 90.969464 -18.395571 -3.984207 -1.917498 -0.638977 4.308627 10.836261 0.803214 -1.757627 -0.623031 0.008200 -0.585800 -1.609700 16.225017 3.350516 -35.525027 -3.478869 -12.848179 35.727434 4.014771 -20.537708 -3.238097 -0.162000 -2.593400 7.148800 1.063244 -2.689507 -5.315876 5.746038 -1.327114 -2.256307 2.251539 -3.060199 4.314138 1.035600 -1.675600 5.279000 -89.529186 -28.454777 18.065409 41.810091 -53.418192 -18.634925 -2.797728 2.529140 -54.713512 -7.125000 0.000000 0.000000 70.641567 23.075378 35.383953 -67.020343 59.408455 -42.484346 -0.511486 0.021506 -2.413780 7.125000 0.000000 0.000000 
32.659276 17.641634 6.816478 -77.042553 -87.971720 85.566477 -18.493153 -3.879848 -1.683045 -0.632844 4.299804 10.843525 0.854903 -2.028922 -0.948481 0.007000 -0.540600 -1.485600 16.149901 3.557657 -35.571162 -2.871983 -12.042941 32.867839 4.039557 -20.759385 -2.226987 -0.174100 -2.687900 7.411000 1.081002 -2.771016 -5.311606 5.836301 -1.380596 -2.178991 2.418929 -3.159371 3.765446 1.105500 -1.710300 5.105600 -89.718881 -28.222562 18.311867 41.640037 -53.373807 -18.521464 -2.748305 2.606657 -53.539251 -7.125000 0.000000 0.000000 71.030862 22.759124 35.024520 -67.348398 59.488634 -42.772855 -0.519276 0.013710 -2.490826 7.125000 0.000000 0.000000 
32.522523 17.623373 6.818685 -70.279463 -87.993608 79.042914 -18.575241 -3.775077 -1.444831 -0.626620 4.288016 10.846699 0.908616 -2.306298 -1.270070 0.006000 -0.500500 -1.375400 16.057399 3.823786 -35.534460 -2.294819 -11.190274 29.951775 4.041883 -20.947397 -1.110535 -0.186900 -2.784000 7.678000 1.094822 -2.861502 -5.295823 5.895292 -1.444788 -2.045615 2.589494 -3.254554 3.206674 1.174100 -1.742900 4.928200 -89.905332 -27.935751 18.478345 41.773913 -53.479578 -18.604838 -2.713095 2.642776 -52.781013 -7.125000 0.000000 0.000000 71.427929 22.448138 34.585064 -67.797912 59.595036 -43.165975 -0.524674 0.003648 -2.709086 7.125000 0.000000 0.000000 
32.383262 17.604410 6.820291 -62.737649 -87.998663 71.746972 -18.649133 -3.637396 -1.208849 -0.620413 4.273860 10.843640 0.966569 -2.602431 -1.582523 0.004900 -0.453500 -1.246000 15.926253 4.172812 -35.402793 -1.757198 -10.298600 27.015469 4.020197 -21.079139 -0.006254 -0.194300 -2.838900 7.830400 1.103715 -2.957059 -5.275527 5.928218 -1.515177 -1.885780 2.759937 -3.343033 2.662416 1.240600 -1.772600 4.754000 -90.092937 -27.604861 18.552917 42.139306 -53.695201 -18.837774 -2.694222 2.643452 -52.386238 -7.125000 0.000000 0.000000 71.828290 22.123514 34.092869 -68.320668 59.716024 -43.622104 -0.527896 -0.007753 -3.049254 7.125000 0.000000 0.000000 
